<svg width="1080" height="340" viewBox="0 0 1080 340" fill="none" xmlns="http://www.w3.org/2000/svg">
<mask id="mask0" mask-type="alpha" maskUnits="userSpaceOnUse" x="0" y="0" width="1080" height="340">
<rect width="1080" height="340" fill="#C4C4C4"/>
</mask>
<g mask="url(#mask0)">
<rect x="-511" y="273" width="1594" height="65" fill="white"/>
<rect x="-514" width="1594" height="273" fill="#FAFBFC"/>
<g opacity="0.5">
<g opacity="0.5">
<g opacity="0.5">
<g opacity="0.5">
<g opacity="0.5">
<g opacity="0.5">
<path opacity="0.5" fill-rule="evenodd" clip-rule="evenodd" d="M684.44 337.768L705.377 340.991L790.732 305.231L767.435 302.454L684.44 337.768Z" fill="url(#paint0_linear)"/>
</g>
</g>
</g>
</g>
</g>
</g>
<path fill-rule="evenodd" clip-rule="evenodd" d="M744.821 84.8062L745.098 103.064L718.356 106.373C718.356 106.373 722.705 136.555 759.246 136.437C759.246 136.437 795.301 132.62 801.001 106.373L769.173 102.186L769.908 68.2899C769.69 68.288 759.262 84.7141 744.821 84.8062Z" fill="#F2B4A9"/>
<path fill-rule="evenodd" clip-rule="evenodd" d="M747.184 100.863C747.184 100.863 766.263 93.0189 769.367 70.9699C769.367 70.9699 763.719 73.4605 756.517 76.3287C749.316 79.0009 746.597 79.3682 745.984 82.8794C745.176 86.5841 743.937 95.1695 747.184 100.863Z" fill="#E69789"/>
<path fill-rule="evenodd" clip-rule="evenodd" d="M740.61 104.41C740.61 104.41 742.301 118.255 756.776 118.449C771.251 118.643 771.083 102.044 771.083 102.044L794.701 103.343C794.701 103.343 789.158 134.376 752.986 135.431C716.814 136.486 717.154 119.026 717.154 119.026L715.45 103.983L740.61 104.41Z" fill="#B6CBD0"/>
<g opacity="0.339996">
<g opacity="0.339996">
<path opacity="0.339996" fill-rule="evenodd" clip-rule="evenodd" d="M733.212 100.402C733.212 100.402 734.762 120.096 757.159 120.29C777.832 120.469 779.072 97.0343 779.072 97.0343L733.212 100.402Z" fill="#014E6A"/>
</g>
</g>
<path fill-rule="evenodd" clip-rule="evenodd" d="M816.928 272.937L705.504 272.906L705.677 263.876L707.612 166.929C708.409 156.64 715.585 117.393 718.42 116.482C721.023 115.101 731.78 124.086 749.631 130.09C767.482 136.094 788.874 114.285 788.874 114.285L812.994 157.548L815.581 233.148L815.581 233.218L816.928 272.937Z" fill="#B6CBD0"/>
<g opacity="0.259995">
<g opacity="0.259995">
<path opacity="0.259995" fill-rule="evenodd" clip-rule="evenodd" d="M720.535 199.198C720.535 199.198 769.013 204.766 782.454 203.245C782.454 203.245 787.212 197.905 790.068 167.745C790.068 167.745 791.634 204.027 791.353 209.172C791.071 214.551 727.302 206.51 727.302 206.51L720.535 199.198Z" fill="#014E6A"/>
</g>
</g>
<g opacity="0.380005">
<g opacity="0.380005">
<path opacity="0.380005" fill-rule="evenodd" clip-rule="evenodd" d="M806.319 247.103L807.479 275.894L819.964 276.002L817.144 248.367L806.319 247.103Z" fill="#014E6A"/>
</g>
</g>
<path fill-rule="evenodd" clip-rule="evenodd" d="M720.301 198.962C720.301 198.962 717.012 197.998 717.665 204.087C718.318 210.176 719.397 221.417 719.594 225.864C719.791 230.312 720.483 231.956 723.57 229.175C726.421 226.392 727.497 211.192 726.815 208.378C726.366 205.8 720.301 198.962 720.301 198.962Z" fill="#2B4A5E"/>
<path fill-rule="evenodd" clip-rule="evenodd" d="M660.449 231.721C660.449 231.721 648.974 250.808 666.124 256.104C684.214 261.643 686.816 260.496 687.623 249.037C688.43 237.579 680.008 230.954 674.596 230.206C669.183 229.69 662.106 230.799 660.449 231.721Z" fill="#2B4A5E"/>
<path fill-rule="evenodd" clip-rule="evenodd" d="M688.371 244.364C688.371 244.364 685.515 247.615 682.658 251.1C679.8 254.585 676.47 258.3 675.042 259.925C675.042 259.925 668.713 256.361 680.356 244.996L668.279 252.145C668.279 252.145 670.569 259.652 664.635 264.749L662.163 251.156L665.969 246.977L659.566 251.835C659.566 251.835 662.998 263.33 656.601 267.487L653.916 251.319L658.191 247.378L653.916 251.319C653.916 251.319 656.884 262.108 650.268 264.39L648.992 248.702L651.369 246.383L648.992 248.702C648.992 248.702 649.851 258.303 645.825 260.608L644.517 248.663C644.517 248.663 652.129 240.305 658.986 237.323C665.846 234.107 673.404 231.833 673.404 231.833C673.404 231.833 687.062 232.419 688.371 244.364" fill="#F2B4A9"/>
<path fill-rule="evenodd" clip-rule="evenodd" d="M665.139 234.101C665.139 234.101 675.965 235.365 681.573 240.561C681.573 240.561 668.773 249.576 666.642 250.727C664.514 251.644 669.665 255.199 664.637 264.515C664.637 264.515 670.757 265.035 676.206 261.573C681.656 257.877 682.856 255.313 685.71 252.296C688.799 249.281 691.623 249.54 691.894 245.564C692.164 241.589 685.876 233.345 679.297 231.416C672.716 229.721 672.478 229.953 670.35 230.871C668.695 231.558 665.139 234.101 665.139 234.101Z" fill="#E69789"/>
<path fill-rule="evenodd" clip-rule="evenodd" d="M656.833 267.957C656.833 267.957 661.814 264.022 658.851 252.765C658.851 252.765 656.737 252.045 661.237 249.276C665.737 246.507 668.336 245.594 668.336 245.594C668.336 245.594 660.276 251.374 660.733 253.015C661.19 254.658 663.74 259.359 661.579 264.02C659.184 268.445 656.833 267.957 656.833 267.957Z" fill="#E69789"/>
<path fill-rule="evenodd" clip-rule="evenodd" d="M650.504 264.392C650.504 264.392 654.987 263.495 652.976 251.077C652.976 251.077 657.012 247.602 659.148 245.748C659.148 245.748 653.912 251.786 654.148 251.788C654.148 251.788 655.512 257.416 654.056 262.317C652.837 266.986 650.723 266.266 650.723 266.266L650.504 264.392Z" fill="#E69789"/>
<path fill-rule="evenodd" clip-rule="evenodd" d="M646.295 260.846C646.295 260.846 649.162 256.191 648.284 248.93L653.026 245.461L649.459 249.174C649.459 249.174 650.092 257.603 648.656 260.164C647.22 262.726 646.295 260.846 646.295 260.846Z" fill="#E69789"/>
<path fill-rule="evenodd" clip-rule="evenodd" d="M660.213 231.718L689.051 220.503C689.051 220.503 688.051 146.556 688.133 137.197C687.98 127.836 691.235 105.87 719.512 104.945C748.024 104.022 722.694 144.984 723.197 168.153C723.701 191.322 722.965 221.5 722.905 228.284C722.846 235.07 722.538 243.256 707.641 249.679C692.741 256.335 683.295 259.061 683.295 259.061C683.295 259.061 702.348 235.36 660.213 231.718" fill="#B6CBD0"/>
<path fill-rule="evenodd" clip-rule="evenodd" d="M709.509 251.567C709.509 251.567 709.671 233.083 723.884 224.081C723.884 224.081 727.8 234.177 721.135 242.074C714.472 249.738 709.509 251.567 709.509 251.567Z" fill="#DFB1A7"/>
<g opacity="0.270004">
<g opacity="0.270004">
<path opacity="0.270004" fill-rule="evenodd" clip-rule="evenodd" d="M685.798 242.3C685.798 242.3 708.028 232.358 713.951 228.575C719.638 224.79 722.741 193.317 723.693 165.386C723.693 165.386 727.31 209.517 725.74 227.308C724.171 245.098 703.084 258.885 693.871 261.818C684.658 264.751 678.772 264.426 679.284 259.774C679.558 255.394 685.798 242.3 685.798 242.3Z" fill="#014E6A"/>
</g>
</g>
<path fill-rule="evenodd" clip-rule="evenodd" d="M729.55 208.948C729.55 208.948 718.028 206.541 711.916 205.047C705.805 203.553 694.516 201.437 694.516 201.437C694.516 201.437 683.82 212.298 681.928 213.146L682.731 229.008C682.731 229.008 686.513 227.6 686.142 216.066L691.851 209.774L686.142 216.066L687.194 230.488C687.194 230.488 691.226 227.352 690.595 218.699L694.404 214.119L690.595 218.699L691.667 230.815C691.667 230.815 694.28 228.243 694.116 220.17L697.925 215.591L695.289 220.757L699.453 229.441C699.453 229.441 701.595 226.865 698.822 220.788C698.822 220.788 699.777 219.355 701.671 218.218C703.566 217.082 707.742 224.325 715.531 222.662C723.317 221.289 725.655 223.327 729.183 223.934C732.941 225.12 729.55 208.948 729.55 208.948Z" fill="#F2B4A9"/>
<path fill-rule="evenodd" clip-rule="evenodd" d="M682.635 229.513C682.635 229.513 686.441 225.334 685.106 216.431L691.992 210.173L686.517 216.677C686.517 216.677 687.381 225.576 685.234 228.599C683.09 231.388 682.635 229.513 682.635 229.513Z" fill="#E69789"/>
<path fill-rule="evenodd" clip-rule="evenodd" d="M691.338 230.489C691.338 230.489 694.917 225.373 693.565 218.341L699.263 213.243L694.736 219.053C694.736 219.053 695.353 229.354 691.338 230.489Z" fill="#E69789"/>
<path fill-rule="evenodd" clip-rule="evenodd" d="M687.045 230.998C687.045 230.998 689.222 224.465 688.553 220.248L693.774 215.847C693.774 215.847 689.972 219.558 690.191 221.432C689.941 223.068 690.375 227.283 687.045 230.998Z" fill="#E69789"/>
<path fill-rule="evenodd" clip-rule="evenodd" d="M699.831 229.662C699.831 229.662 701.045 225.46 698.491 221.227C698.491 221.227 699.692 218.663 702.059 217.28C704.192 215.895 708.393 220.377 715.699 219.972C723.241 219.57 724.197 217.94 723.99 214.662C723.783 211.385 723.12 206.465 723.12 206.465L726.889 206.498C726.889 206.498 732.736 211.228 733.189 213.338C733.642 215.448 736.147 225.297 731.429 225.958C726.948 226.621 712.354 225.325 709.054 225.53C705.988 225.971 707.145 228.321 704.539 229.936C702.17 231.554 699.831 229.662 699.831 229.662Z" fill="#E69789"/>
<path fill-rule="evenodd" clip-rule="evenodd" d="M725.066 199.96C725.066 199.96 734.807 217.36 726.673 231.562C726.673 231.562 795.304 249.238 806.113 252.374C816.686 255.508 830.379 252.117 830.252 212.806C830.128 173.261 829.265 137.454 829.265 137.454C829.265 137.454 831.416 107.055 800.1 105.379C768.549 103.702 783.343 108.978 783.343 108.978C783.343 108.978 770.871 134.374 795.343 164.302L793.771 209.214L725.066 199.96Z" fill="#B6CBD0"/>
<path fill-rule="evenodd" clip-rule="evenodd" d="M798.09 252.942C798.09 252.942 804.665 228.431 833.202 224.701C833.202 224.701 835.409 241.567 823.791 250.123C812.176 258.446 798.09 252.942 798.09 252.942Z" fill="#F2B4A9"/>
<g opacity="0.279999">
<g opacity="0.279999">
<path opacity="0.279999" fill-rule="evenodd" clip-rule="evenodd" d="M727.939 220.512C727.939 220.512 802.903 241.285 807.133 242.492C811.363 243.698 826.415 246.403 830.984 209.005C830.984 209.005 836.469 201.331 835.367 219.572C834.262 238.047 835.692 263.096 811.698 259.144C787.703 255.426 725.214 235.697 725.214 235.697L727.939 220.512Z" fill="#014E6A"/>
</g>
</g>
<path fill-rule="evenodd" clip-rule="evenodd" d="M583.594 206.095C585.936 206.116 587.818 208.018 587.797 210.344C587.777 212.669 585.862 214.538 583.52 214.518C581.179 214.498 579.297 212.596 579.317 210.27C579.338 207.944 581.252 206.075 583.594 206.095Z" fill="#B6CBD0"/>
<path fill-rule="evenodd" clip-rule="evenodd" d="M883.309 103.338C887.082 103.37 890.113 106.435 890.081 110.182C890.048 113.929 886.963 116.94 883.19 116.907C879.417 116.875 876.385 113.811 876.418 110.063C876.451 106.316 879.537 103.305 883.309 103.338Z" fill="#424663"/>
<path fill-rule="evenodd" clip-rule="evenodd" d="M887.547 324.171C891.32 324.203 894.351 327.268 894.319 331.015C894.286 334.762 891.2 337.774 887.428 337.741C883.656 337.708 880.624 334.644 880.656 330.897C880.689 327.149 883.775 324.138 887.547 324.171Z" fill="#F09B9B"/>
<path fill-rule="evenodd" clip-rule="evenodd" d="M598.276 28.0059C601.233 28.0316 603.608 30.4681 603.582 33.4477C603.556 36.4276 601.138 38.8225 598.181 38.7969C595.224 38.7712 592.849 36.3347 592.875 33.3548C592.901 30.3752 595.319 27.9803 598.276 28.0059Z" fill="#F09B9B"/>
<path fill-rule="evenodd" clip-rule="evenodd" d="M803.081 22.4274C802.345 22.421 801.743 23.0128 801.736 23.7491L801.407 61.2674C801.403 61.7506 801.138 62.1938 800.714 62.4256L787.498 69.653C786.306 70.3049 786.738 72.1134 788.096 72.1555L800.005 72.525C800.729 72.5475 801.303 73.1445 801.297 73.8692L801.238 80.5339C801.232 81.2703 801.823 81.8724 802.56 81.8788L864.624 82.4173C865.36 82.4237 865.963 81.8319 865.969 81.0956L866.467 24.3108C866.474 23.5744 865.882 22.9723 865.146 22.9659L803.081 22.4274Z" fill="#C9A5B5"/>
<path d="M857.239 74.3315L810.768 73.9283C809.514 73.9174 808.508 72.7386 808.521 71.2955L808.853 33.4755C808.866 32.0325 809.892 30.8713 811.146 30.8822L857.617 31.2854C858.87 31.2963 859.876 32.4751 859.864 33.9182L859.532 71.7381C859.519 73.1812 858.492 74.3424 857.239 74.3315Z" fill="#FFFAFB"/>
<path d="M858.238 75.5016L811.767 75.0984C810.513 75.0875 809.507 73.9087 809.52 72.4656L809.852 34.6456C809.864 33.2026 810.891 32.0414 812.144 32.0523L858.615 32.4555C859.869 32.4664 860.875 33.6452 860.862 35.0883L860.53 72.9083C860.518 74.3513 859.491 75.5125 858.238 75.5016Z" fill="#FFFAFB" fill-opacity="0.1"/>
<path d="M859.824 38.4917L859.864 33.9182C859.876 32.4751 858.87 31.2963 857.617 31.2854L811.146 30.8822C809.892 30.8713 808.866 32.0325 808.853 33.4756L808.813 38.049L859.824 38.4917Z" fill="#E1E3E9"/>
<path d="M812.2 36.4445C813.141 36.4527 813.91 35.5818 813.92 34.4995C813.929 33.4171 813.175 32.5331 812.235 32.5249C811.294 32.5168 810.525 33.3876 810.515 34.4699C810.506 35.5523 811.26 36.4363 812.2 36.4445Z" fill="#F24B45" fill-opacity="0.8"/>
<path d="M817.308 36.4888C818.248 36.497 819.018 35.6262 819.027 34.5438C819.037 33.4614 818.282 32.5774 817.342 32.5692C816.402 32.5611 815.632 33.4319 815.622 34.5143C815.613 35.5966 816.367 36.4807 817.308 36.4888Z" fill="#FFB202" fill-opacity="0.8"/>
<path d="M822.416 36.5331C823.356 36.5413 824.126 35.6705 824.135 34.5881C824.145 33.5058 823.39 32.6217 822.45 32.6136C821.51 32.6054 820.74 33.4762 820.73 34.5586C820.721 35.6409 821.475 36.525 822.416 36.5331Z" fill="#4CBB41" fill-opacity="0.8"/>
<path d="M815.368 54.8746C815.371 54.5058 815.577 54.1686 815.904 53.9974L826.785 48.2991C827.454 47.9487 828.256 48.4383 828.249 49.1937L828.24 50.171C828.237 50.5485 828.021 50.892 827.683 51.0591L818.516 55.5818C818.499 55.5901 818.488 55.6073 818.488 55.6261V55.6261C818.488 55.6449 818.499 55.6622 818.515 55.6709L827.601 60.3513C827.937 60.5242 828.147 60.8714 828.143 61.249L828.135 62.2262C828.128 62.9816 827.318 63.4573 826.655 63.0952L815.876 57.209C815.552 57.0322 815.352 56.6915 815.355 56.3226L815.368 54.8746Z" fill="#53718B"/>
<path d="M816.728 55.8139C816.732 55.445 816.938 55.1078 817.265 54.9367L828.146 49.2384C828.815 48.8879 829.616 49.3775 829.61 50.1329L829.601 51.1102C829.598 51.4878 829.382 51.8313 829.044 51.9983L819.877 56.521C819.86 56.5294 819.849 56.5465 819.849 56.5653V56.5653C819.849 56.5842 819.859 56.6015 819.876 56.6101L828.962 61.2906C829.298 61.4635 829.507 61.8107 829.504 62.1882L829.495 63.1655C829.489 63.9209 828.679 64.3965 828.016 64.0345L817.236 58.1482C816.913 57.9714 816.713 57.6308 816.716 57.2619L816.728 55.8139Z" fill="#424663" fill-opacity="0.1"/>
<path d="M831.363 66.4364C830.71 66.4308 830.238 65.8108 830.406 65.1797L835.791 44.9159C835.909 44.4746 836.31 44.1687 836.767 44.1727L837.402 44.1782C838.055 44.1839 838.527 44.8038 838.36 45.435L832.973 65.6988C832.856 66.1401 832.455 66.4459 831.998 66.4419L831.363 66.4364Z" fill="#53718B"/>
<path d="M832.042 67.3114C831.389 67.3058 830.916 66.6859 831.084 66.0547L836.47 45.7909C836.587 45.3496 836.988 45.0437 837.445 45.0477L838.081 45.0532C838.734 45.0589 839.206 45.6788 839.038 46.31L833.652 66.5738C833.535 67.0151 833.133 67.3209 832.677 67.3169L832.042 67.3114Z" fill="#53718B" fill-opacity="0.1"/>
<path d="M852.961 56.7377C852.958 57.1087 852.749 57.4474 852.42 57.6177L841.539 63.2377C840.87 63.5832 840.074 63.0934 840.08 62.3405L840.089 61.3586C840.092 60.9779 840.311 60.6322 840.654 60.4667L849.895 56.0075C849.991 55.9613 850.048 55.8606 850.039 55.7548V55.7548C850.031 55.6649 849.976 55.586 849.895 55.547L840.753 51.1651C840.404 50.9974 840.182 50.6425 840.186 50.2546L840.194 49.2868C840.201 48.5338 841.006 48.058 841.669 48.4151L852.449 54.2237C852.776 54.3996 852.978 54.7417 852.975 55.1125L852.961 56.7377Z" fill="#53718B"/>
<path d="M853.759 57.6721C853.756 58.0431 853.547 58.3818 853.218 58.5521L842.337 64.172C841.668 64.5176 840.872 64.0278 840.878 63.2749L840.887 62.293C840.89 61.9123 841.11 61.5665 841.453 61.4011L850.693 56.9418C850.789 56.8956 850.846 56.795 850.837 56.6891V56.6891C850.829 56.5993 850.774 56.5203 850.693 56.4814L841.552 52.0994C841.202 51.9318 840.981 51.5769 840.984 51.189L840.992 50.2212C840.999 49.4682 841.804 48.9923 842.467 49.3495L853.247 55.158C853.574 55.3339 853.776 55.6761 853.773 56.0469L853.759 57.6721Z" fill="#424663" fill-opacity="0.1"/>
<path fill-rule="evenodd" clip-rule="evenodd" d="M730.187 36.7042C733.336 36.7315 735.855 40.6781 735.812 45.5189C735.77 50.3601 733.182 54.262 730.033 54.2347C726.884 54.2074 724.366 50.2611 724.409 45.42C724.451 40.5792 727.038 36.6768 730.187 36.7042Z" fill="#4B1B2B"/>
<path fill-rule="evenodd" clip-rule="evenodd" d="M729.552 27.5516C733.153 27.5829 736.037 31.5326 735.995 36.3734C735.952 41.2147 732.999 45.1134 729.398 45.0821C725.797 45.0509 722.912 41.1015 722.955 36.2603C722.997 31.4194 725.951 27.5204 729.552 27.5516Z" fill="#4B1B2B"/>
<path fill-rule="evenodd" clip-rule="evenodd" d="M734.134 23.0179C740.243 23.0709 745.177 25.2291 745.154 27.8382C745.131 30.4476 740.16 32.5197 734.051 32.4666C727.941 32.4136 723.008 30.2556 723.03 27.6463C723.053 25.0371 728.024 22.9648 734.134 23.0179Z" fill="#4B1B2B"/>
<path fill-rule="evenodd" clip-rule="evenodd" d="M747.651 19.3239C752.465 19.3656 760.682 20.5015 760.641 25.1535C760.6 29.8055 752.994 31.3479 748.18 31.3061C743.367 31.2643 726.866 27.6071 726.907 22.9552C729.242 19.1641 742.838 19.2821 747.651 19.3239Z" fill="#4B1B2B"/>
<path d="M765.514 27.1014C768.688 25.8994 770.25 22.9215 770.266 21.0446C770.296 17.6364 759.564 16.7593 751.123 17.0672C764.904 18.9559 766.147 25.8774 765.514 27.1014Z" fill="#451525"/>
<path fill-rule="evenodd" clip-rule="evenodd" d="M756.109 17.1105C760.923 17.1523 769.14 18.2882 769.099 22.9401C769.058 27.5921 761.452 29.1345 756.638 29.0927C751.825 29.051 735.324 25.3938 735.365 20.7418C737.7 16.9508 751.296 17.0687 756.109 17.1105Z" fill="#4B1B2B"/>
<path fill-rule="evenodd" clip-rule="evenodd" d="M770.639 28.3015C770.621 30.3369 769.733 32.1776 768.285 33.4989C768.261 33.5221 768.237 33.5452 768.19 33.5681C766.884 34.7269 765.158 35.4606 763.25 35.4674C763.179 35.4901 763.108 35.4895 763.038 35.4889C760.753 35.4691 758.736 34.4925 757.383 32.9361L757.359 32.9359C756.777 32.2526 756.289 31.4527 755.967 30.5842C755.691 29.8328 755.557 29.013 755.564 28.1707C755.569 27.5858 755.645 27.0013 755.791 26.4646C756.083 25.344 756.658 24.3193 757.419 23.4835C758.799 21.9278 760.856 20.963 763.165 20.983C763.448 20.9854 763.754 21.0114 764.036 21.0376C764.06 21.0378 764.06 21.0378 764.083 21.0613C767.825 21.515 770.671 24.6046 770.639 28.3015Z" fill="#3F0F1F"/>
<path fill-rule="evenodd" clip-rule="evenodd" d="M777.665 54.4216C776.968 55.9832 776.465 56.9382 776.465 56.9382C776.465 56.9382 775.362 56.4841 773.808 56.4236C772.583 56.3663 771.098 56.5405 769.63 57.3468C769.559 57.3929 769.465 57.4157 769.371 57.4149C768.45 57.5706 767.288 55.8525 765.873 53.3365C763.322 48.7285 759.923 41.422 755.593 38.2021C753.745 36.8292 751.748 36.2033 749.551 36.8158C745.23 38.0421 742.245 39.9581 739.896 41.8098C738.284 43.059 736.977 44.2645 735.744 45.1665C734.441 46.1146 733.21 46.7355 731.797 46.7232C731.09 46.7404 730.432 46.571 729.846 46.2148C728.205 45.2648 727.023 43.1253 726.431 40.7802C726.09 39.397 725.961 37.945 726.09 36.6592C726.194 35.5604 726.462 34.5566 726.963 33.812C728.134 31.974 729.136 30.5318 730.442 29.3029C730.751 28.9781 731.083 28.7002 731.439 28.3992C732.554 27.5195 733.927 26.7361 735.748 25.9329C738.349 24.809 740.596 23.8691 742.862 23.2568C743.571 23.0292 744.303 22.8718 745.034 22.7378C746.214 22.4906 747.417 22.3606 748.736 22.3017C751.47 22.1854 755.051 22.1694 758.136 22.3132C758.771 22.3654 759.407 22.3943 759.972 22.4462C761.22 22.5507 762.302 22.7002 763.101 22.8945C765.945 23.5742 769.976 28.7099 770.535 29.4171C770.558 29.4873 770.581 29.5108 770.581 29.5108C770.581 29.5108 779.26 28.393 779.929 37.9921C780.243 42.534 778.394 46.566 776.342 49.5668L776.341 49.5901C776.315 49.9174 776.289 50.1746 776.287 50.385C776.136 51.5068 775.404 51.6879 774.339 52.2165L774.316 52.24C772.888 53.8656 771.749 54.8618 771.559 55.0002C774.396 53.855 776.327 53.8718 777.665 54.4216Z" fill="#4B1B2B"/>
<path fill-rule="evenodd" clip-rule="evenodd" d="M780.685 59.3148C780.119 70.073 770.457 70.4574 770.457 70.4574C768.473 81.9053 760.148 90.9585 747.197 90.3782C734.247 89.5639 730.096 79.4664 729.351 56.9976C729.297 55.055 729.289 53.3002 729.35 51.7094C729.439 49.6276 729.62 47.8041 729.846 46.215C730.494 42.196 731.576 39.6317 732.722 37.9802L732.722 37.9569C733.795 36.4452 734.908 35.7296 735.76 35.3862C736.681 35.0197 737.317 35.0719 737.317 35.0719C743.243 30.9115 762.787 31.7831 769.569 37.4576C774.593 42.1341 772.654 51.0557 771.85 54.0203C771.68 54.557 771.583 54.907 771.559 55.0005C774.396 53.8553 776.327 53.872 777.665 54.4215C779.59 55.1872 780.281 57.0183 780.529 58.2136C780.665 58.8701 780.685 59.3148 780.685 59.3148Z" fill="#F2B4A9"/>
<path fill-rule="evenodd" clip-rule="evenodd" d="M729.681 47.2335C729.681 47.2335 727.647 37.3884 735.664 36.522C735.664 36.522 732.698 52.4071 760.376 39.0763C760.376 39.0763 768.867 37.9802 768.324 46.1649C767.781 54.3496 774.78 35.2237 764.424 34.1978C754.301 33.408 751.471 33.8513 744.879 33.3262C738.286 33.0349 736.445 28.1056 732.379 35.0895C728.548 42.0759 729.462 45.3598 729.681 47.2335Z" fill="#E69789"/>
<path fill-rule="evenodd" clip-rule="evenodd" d="M769.122 61.5507C769.122 61.5507 768.264 51.95 776.259 53.657C776.259 53.657 781.197 54.6359 780.445 59.7772C780.682 59.5451 777.686 52.0317 769.122 61.5507Z" fill="#E69789"/>
<path fill-rule="evenodd" clip-rule="evenodd" d="M737.87 52.6221C739.041 52.6323 739.981 53.6879 739.969 54.9803C739.958 56.2723 739 57.3115 737.829 57.3013C736.658 57.2912 735.718 56.2355 735.729 54.9435C735.741 53.6511 736.699 52.612 737.87 52.6221Z" fill="#4C2243"/>
<path fill-rule="evenodd" clip-rule="evenodd" d="M750.628 52.8408C751.799 52.851 752.739 53.9067 752.727 55.1987C752.716 56.491 751.758 57.5302 750.587 57.5201C749.416 57.5099 748.476 56.4543 748.488 55.1619C748.499 53.8699 749.457 52.8307 750.628 52.8408Z" fill="#4C2243"/>
<path fill-rule="evenodd" clip-rule="evenodd" d="M749.932 47.1111C749.932 47.1111 752.042 48.2995 753.91 50.1872C755.778 52.0755 756.485 52.0816 756.962 51.3838C757.677 50.4539 756.28 48.5701 752.996 46.9039C749.949 45.2394 748.761 46.3989 749.932 47.1111Z" fill="#4C2243"/>
<path fill-rule="evenodd" clip-rule="evenodd" d="M740.347 47.3405C740.347 47.3405 738.409 48.047 736.541 49.4153C734.673 50.7836 734.095 50.6721 733.831 49.9734C733.415 49.0291 734.897 47.5868 737.881 46.6493C740.865 45.7122 741.667 46.7305 740.347 47.3405Z" fill="#4C2243"/>
<path fill-rule="evenodd" clip-rule="evenodd" d="M776.145 48.4656L776.145 48.4899C776.113 48.8306 776.081 49.0985 776.079 49.3179C775.895 50.4859 774.996 50.6729 773.687 51.2221L773.658 51.2461C772.785 51.5799 773.816 51.3039 772.677 52.3175C774.341 51.6742 772.673 52.6985 772.673 52.6985C771.768 53.5193 773.549 53.6881 770.521 55.3478C768.235 58.2766 770.588 60.4596 768.401 58.7595C766.89 56.0785 763.822 56.0519 764.643 49.961C765.41 48.4077 764.84 48.928 765.672 46.5474C769.836 34.3999 757.86 36.1815 757.86 36.1815C757.86 36.1815 753.822 36.5014 751.465 37.6505C747.246 39.6854 739.407 41.3487 733.27 40.6617C732.547 40.5825 731.881 40.4791 731.303 40.3279C725.52 38.9619 725.843 35.0902 726.204 33.6317C726.294 33.2668 726.383 33.0485 726.383 33.0485C726.383 33.0485 726.002 29.7004 741.445 27.2732C743.158 26.8494 745.361 26.6098 747.015 26.4047C748.639 26.1997 750.146 26.1638 751.565 26.2494C752.985 26.286 754.344 26.4926 755.646 26.7963L755.675 26.7965C758.133 27.3784 760.443 28.2999 762.867 29.4419L762.896 29.4422C765.233 30.5588 767.656 31.847 770.426 33.1868C778.214 37.2018 776.578 45.2773 776.145 48.4656Z" fill="#4B1B2B"/>
<path fill-rule="evenodd" clip-rule="evenodd" d="M745.584 56.5459C745.584 56.5459 745.838 65.9028 745.65 68.1829C745.63 70.4645 744.109 71.1354 742.256 71.3476C740.237 71.3301 738.398 69.9452 740.443 66.997C742.489 64.0485 743.516 62.0039 743.875 59.497C744.234 56.9904 744.246 55.6215 744.921 55.3994C745.764 55.1785 745.588 56.0897 745.584 56.5459Z" fill="#E99A8C"/>
<path fill-rule="evenodd" clip-rule="evenodd" d="M740.031 68.5245C740.031 68.5245 740.547 69.4386 742.762 69.0686C744.976 68.6989 744.655 66.5568 746.521 67.1565C748.216 67.7547 748.039 68.5309 746.329 69.6831C744.617 70.8352 741.723 71.1992 740.709 70.4124C739.864 69.8215 740.031 68.5245 740.031 68.5245Z" fill="#E39486"/>
<path fill-rule="evenodd" clip-rule="evenodd" d="M737.447 73.911C737.447 73.911 740.022 75.8051 744.03 75.372C747.801 75.171 751.122 72.6257 751.122 72.6257C751.122 72.6257 748 79.3842 744.231 79.3515C740.696 79.5549 737.447 73.911 737.447 73.911Z" fill="#DC8D7F"/>
<path fill-rule="evenodd" clip-rule="evenodd" d="M545.343 106.295C549.772 106.334 553.333 109.807 553.296 114.054C553.258 118.301 549.637 121.713 545.208 121.675C540.779 121.636 537.218 118.162 537.255 113.915C537.293 109.668 540.914 106.257 545.343 106.295Z" fill="#C9A5B5"/>
<g opacity="0.600006">
<g opacity="0.600006">
<g opacity="0.600006">
<g opacity="0.600006">
<g opacity="0.600006">
<g opacity="0.600006">
<path opacity="0.600006" fill-rule="evenodd" clip-rule="evenodd" d="M528.447 289.383L550.739 326.079L604.262 347.368L698.629 304.665L672.991 300.231C672.991 300.231 548.133 274.111 528.447 289.383" fill="url(#paint1_linear)"/>
</g>
</g>
</g>
</g>
</g>
</g>
<path fill-rule="evenodd" clip-rule="evenodd" d="M611.292 324.732L673.222 300.701L673.515 294.152L610.881 317.943L611.292 324.732Z" fill="#424663"/>
<path fill-rule="evenodd" clip-rule="evenodd" d="M673.751 294.154L608.418 276.506L609.926 319.338L631.202 310.866L646.331 304.913L673.751 294.154Z" fill="#5E607D"/>
<path fill-rule="evenodd" clip-rule="evenodd" d="M607.203 280.707L637.519 288.926L619.56 295.322L605.925 292.161L607.203 280.707Z" fill="#C9A5B5"/>
<path d="M527.95 289.381L611.302 324.301L609.225 257.096L526.597 222.585L527.95 289.381Z" fill="url(#paint2_linear)"/>
<path fill-rule="evenodd" clip-rule="evenodd" d="M736.005 298.533C735.884 298.586 735.762 298.638 735.641 298.691C734.73 298.926 733.641 298.428 733.221 297.477C733.161 297.34 733.161 297.34 733.101 297.205C732.621 296.117 732.99 294.984 733.902 294.425C734.024 294.372 734.145 294.319 734.267 294.266C735.36 293.789 736.631 294.37 737.171 295.594C737.231 295.73 737.231 295.73 737.291 295.866C737.59 296.87 737.099 298.056 736.005 298.533Z" fill="#E06E7E"/>
<path fill-rule="evenodd" clip-rule="evenodd" d="M732.173 300.197L732.053 300.25L694.739 316.5L693.795 314.361L692.851 312.223L730.102 295.83L730.222 295.778L731.292 298.202L732.173 300.197Z" fill="#B6CBD0"/>
<path fill-rule="evenodd" clip-rule="evenodd" d="M694.692 316.546L687.398 317.088L692.799 312.257L693.717 314.336L694.692 316.546Z" fill="#EBC6BE"/>
<path fill-rule="evenodd" clip-rule="evenodd" d="M735.726 298.747L732.08 300.335L732.026 300.215L731.174 298.283L730.108 295.869L733.754 294.281L733.807 294.402L734.82 296.696L735.672 298.627L735.726 298.747Z" fill="#5E607D"/>
<g opacity="0.199997">
<g opacity="0.199997">
<path opacity="0.199997" fill-rule="evenodd" clip-rule="evenodd" d="M693.684 314.451L694.727 316.57L687.423 317.165L693.684 314.451Z" fill="#5E607D"/>
</g>
</g>
<g opacity="0.199997">
<g opacity="0.199997">
<path opacity="0.199997" fill-rule="evenodd" clip-rule="evenodd" d="M736.027 298.473C735.894 298.472 735.76 298.603 735.627 298.601L735.626 298.733L731.897 300.283L694.595 316.437L693.685 314.32L730.985 298.297L731.119 298.167L732.984 297.392L734.583 296.615L736.848 295.58C737.5 296.904 737.092 298.087 736.027 298.473Z" fill="#5E607D"/>
</g>
</g>
<g opacity="0.190002">
<g opacity="0.190002">
<path opacity="0.190002" fill-rule="evenodd" clip-rule="evenodd" d="M762.062 280.641L699.289 280.624L699.387 275.537C699.387 275.537 759.682 281.148 761.303 258.265L762.062 280.641Z" fill="#014E6A"/>
</g>
</g>
<path d="M969.237 148.191C968.733 148.187 968.309 147.804 968.265 147.297C967.778 141.687 967.061 136.049 966.134 130.54C966.045 130.008 966.408 129.504 966.945 129.415C967.47 129.325 967.987 129.684 968.079 130.219C969.012 135.777 969.736 141.467 970.226 147.129C970.272 147.668 969.873 148.141 969.331 148.187C969.299 148.19 969.267 148.191 969.237 148.191Z" fill="#B6CBD0"/>
<path d="M961.825 108.076C961.4 108.073 961.008 107.794 960.886 107.366C955.406 88.2687 947.24 70.0252 936.615 53.1439C936.327 52.6857 936.468 52.0826 936.929 51.7963C937.389 51.5123 937.995 51.6491 938.285 52.1076C949.008 69.145 957.25 87.5558 962.782 106.83C962.929 107.35 962.627 107.891 962.104 108.039C962.011 108.065 961.917 108.077 961.825 108.076Z" fill="#B6CBD0"/>
<path d="M550.923 93.2023C550.813 93.2013 550.701 93.1823 550.593 93.1425C550.083 92.9563 549.82 92.3941 550.008 91.8874C550.596 90.2963 551.202 88.7158 551.825 87.1447C552.025 86.6427 552.596 86.3929 553.103 86.5936C553.608 86.7923 553.857 87.3599 553.657 87.8622C553.039 89.4196 552.439 90.9866 551.856 92.5614C551.709 92.9602 551.327 93.2058 550.923 93.2023Z" fill="#B6CBD0"/>
<path d="M541.587 206.71C541.127 206.706 540.718 206.381 540.629 205.914C537.999 192.153 536.729 178.019 536.853 163.898C536.944 153.551 537.785 143.154 539.354 132.998C539.435 132.463 539.946 132.098 540.475 132.18C541.013 132.261 541.382 132.76 541.3 133.294C539.746 143.359 538.912 153.661 538.822 163.915C538.7 177.908 539.958 191.915 542.564 205.551C542.665 206.08 542.315 206.593 541.78 206.694C541.716 206.704 541.65 206.711 541.587 206.71Z" fill="#B6CBD0"/>
<path d="M769.386 30.9458C771.56 29.8991 772.886 28.4335 772.901 26.8069C772.927 23.8531 768.619 21.3664 762.979 20.9809C772.405 22.5959 769.822 29.884 769.386 30.9458Z" fill="#451525"/>
<path d="M780.446 32.8718C775.561 25.8099 770.581 29.5105 770.581 29.5105C770.581 29.5105 779.26 28.3924 779.929 37.9915C780.243 42.5338 778.394 46.5654 776.342 49.5662L776.341 49.5895C775.673 50.5898 774.982 51.4728 774.34 52.2162L774.316 52.2394C772.888 53.865 771.749 54.8612 771.559 55C774.396 53.8548 776.327 53.8715 777.665 54.421C779.9 49.433 784.168 38.2624 780.446 32.8718Z" fill="#451525"/>
</g>
<defs>
<linearGradient id="paint0_linear" x1="821.672" y1="322.951" x2="692.622" y2="321.069" gradientUnits="userSpaceOnUse">
<stop stop-color="#542D4C"/>
<stop offset="0.9915" stop-color="#542D4C"/>
<stop offset="1" stop-color="#542D4C"/>
</linearGradient>
<linearGradient id="paint1_linear" x1="613.023" y1="355.68" x2="613.545" y2="295.588" gradientUnits="userSpaceOnUse">
<stop stop-color="#542D4C"/>
<stop offset="0.9915" stop-color="#542D4C"/>
<stop offset="1" stop-color="#542D4C"/>
</linearGradient>
<linearGradient id="paint2_linear" x1="526.248" y1="273.072" x2="614.361" y2="273.846" gradientUnits="userSpaceOnUse">
<stop stop-color="#F1DDD7"/>
<stop offset="0.00088872" stop-color="#F1DDD7"/>
<stop offset="0.236" stop-color="#EBDBD6"/>
<stop offset="0.55" stop-color="#DAD6D4"/>
<stop offset="0.9071" stop-color="#BECED1"/>
<stop offset="0.9995" stop-color="#B6CBD0"/>
<stop offset="1" stop-color="#B6CBD0"/>
</linearGradient>
</defs>
</svg>
